<svg id="svg" xmlns="http://www.w3.org/2000/svg" xmlns:xlink="http://www.w3.org/1999/xlink" width="400" height="399.00621118012424" viewBox="0, 0, 400,399.00621118012424"><g id="svgg"><path id="path0" d="M214.907 115.047 C 210.775 115.435,207.545 115.812,205.217 116.178 C 164.384 122.594,131.038 153.643,124.001 191.801 C 121.920 203.085,122.197 218.578,124.623 226.646 C 124.746 227.055,124.176 227.081,115.048 227.081 L 105.342 227.081 105.342 255.404 L 105.342 283.727 199.752 283.727 L 294.161 283.727 294.161 255.404 L 294.161 227.081 242.988 227.081 L 191.814 227.081 191.336 226.025 C 186.870 216.146,185.989 206.090,188.688 195.776 C 191.332 185.668,199.614 177.172,210.062 173.850 C 211.927 173.257,212.589 173.084,215.412 172.448 C 225.930 170.078,241.627 171.835,251.041 176.437 C 252.400 177.101,253.586 177.559,253.677 177.456 C 253.767 177.352,255.799 173.745,258.192 169.441 C 260.584 165.137,262.794 161.168,263.101 160.621 C 278.167 133.847,280.051 130.342,279.574 129.986 C 272.292 124.551,259.661 119.631,246.584 117.134 C 235.808 115.076,223.340 114.255,214.907 115.047 " stroke="none" fill="#198bf0" fill-rule="evenodd"></path></g></svg>